<?xml version="1.0" encoding="UTF-8"?>
<svg width="82px" height="82px" viewBox="0 0 82 82" version="1.1" xmlns="http://www.w3.org/2000/svg" xmlns:xlink="http://www.w3.org/1999/xlink">
    <title>方形logo@2x</title>
    <g id="页面-1" stroke="none" stroke-width="1" fill="none" fill-rule="evenodd">
        <g id="钱包_未登录" transform="translate(-919.000000, -227.000000)">
            <g id="方形logo" transform="translate(920.000000, 228.000000)">
                <rect id="矩形" stroke="#000" x="0" y="0" width="80" height="80" rx="16"></rect>
                <path d="M61.2598176,22 L71,22 L55.8486052,52 L53,38.3686131 C56.6724745,31.0563087 61.2598176,22.0031283 61.2598176,22.0031283 L61.2598176,22.0015641 L61.2598176,22 Z M44.4544698,32.0015349 L51,62 L41.5488604,62 L35,32 L44.4544698,32 L44.4544698,32.0015349 Z M28.5565827,38.0191058 L31,49.9570903 C27.3675486,55.5306554 23.129423,62 23.129423,62 L13.6362767,62 L11,22 L20.5473382,22 C20.5473382,22 22.3563915,46.984731 22.3675486,47.2650536 C22.4520242,47.0959204 25.6780363,42.294417 28.5565827,38.0159737 L28.5565827,38.0191058 Z" id="形状" fill="#000" fill-rule="nonzero"></path>
            </g>
        </g>
    </g>
</svg>